# xmcd CD database file
#
# Track frame offsets:
#	150
#	22747
#	35968
#	51500
#	69013
#
# Disc length: 1172 seconds
#
# Revision: 0
# Processed by: cddbd v1.5.2PL0 Copyright (c) Steve Scherf et al.
# Submitted via: CDex 1.79
#
DISCID=3b049205
DTITLE=John Wrightson - Always Found My Way
DYEAR=2015
DGENRE=Country
TTITLE0=Thats just fine by me
TTITLE1=Always found my way
TTITLE2=Coke mountain
TTITLE3=The Days when Coal was King
TTITLE4=Tin Soldier
EXTD=YEAR: 2015
EXTT0=
EXTT1=
EXTT2=
EXTT3=
EXTT4=
PLAYORDER=
